<svg width="1080" height="2400" viewBox="0 0 1080 2400" fill="none" xmlns="http://www.w3.org/2000/svg">
<g clip-path="url(#clip0_2856_436)">
<rect width="2337.39" height="2400" transform="translate(-628.696)" fill="black"/>
<path d="M392.7 1137.15L431.31 1029H447.307L408.697 1137.15H392.7Z" fill="#D0CFC0"/>
<path d="M493.808 1137.15L455.198 1029H471.195L509.805 1137.15H493.808Z" fill="#D0CFC0"/>
<path d="M516.133 1143.65V1129.08H573.867V1143.65H516.133Z" fill="#D0CFC0"/>
<path d="M580.195 1137.15L618.805 1029H634.802L596.192 1137.15H580.195Z" fill="#D0CFC0"/>
<path d="M681.303 1137.15L642.693 1029H658.69L697.3 1137.15H681.303Z" fill="#D0CFC0"/>
<path d="M364 1211.17C364 1205.31 364.641 1199.69 365.924 1194.31C367.288 1188.85 369.092 1183.79 371.337 1179.14C373.662 1174.48 376.349 1170.3 379.396 1166.61C382.443 1162.84 385.65 1159.67 389.018 1157.1H406.82C403.051 1159.67 399.482 1162.68 396.115 1166.13C392.747 1169.5 389.78 1173.24 387.214 1177.33C384.728 1181.42 382.724 1185.8 381.2 1190.46C379.676 1195.11 378.915 1199.97 378.915 1205.03V1217.31C378.915 1222.37 379.676 1227.23 381.2 1231.89C382.724 1236.54 384.728 1240.92 387.214 1245.01C389.78 1249.11 392.747 1252.84 396.115 1256.21C399.482 1259.67 403.051 1262.68 406.82 1265.25H389.018C385.65 1262.76 382.443 1259.62 379.396 1255.85C376.349 1252.08 373.662 1247.86 371.337 1243.21C369.092 1238.55 367.288 1233.53 365.924 1228.15C364.641 1222.69 364 1217.03 364 1211.17Z" fill="#D0CFC0"/>
<path d="M489.718 1250.07C484.907 1250.07 480.577 1249.35 476.728 1247.9C472.879 1246.38 469.592 1244.21 466.865 1241.4C464.219 1238.59 462.174 1235.18 460.731 1231.16C459.288 1227.15 458.566 1222.61 458.566 1217.55C458.566 1212.5 459.288 1207.96 460.731 1203.95C462.174 1199.93 464.219 1196.52 466.865 1193.71C469.592 1190.9 472.879 1188.77 476.728 1187.33C480.577 1185.8 484.907 1185.04 489.718 1185.04C494.53 1185.04 498.86 1185.8 502.709 1187.33C506.558 1188.77 509.805 1190.9 512.451 1193.71C515.178 1196.52 517.262 1199.93 518.706 1203.95C520.149 1207.96 520.871 1212.5 520.871 1217.55C520.871 1222.61 520.149 1227.15 518.706 1231.16C517.262 1235.18 515.178 1238.59 512.451 1241.4C509.805 1244.21 506.558 1246.38 502.709 1247.9C498.86 1249.35 494.53 1250.07 489.718 1250.07ZM489.718 1236.82C493.728 1236.82 496.855 1235.58 499.1 1233.09C501.345 1230.6 502.468 1227.07 502.468 1222.49V1212.62C502.468 1208.04 501.345 1204.51 499.1 1202.02C496.855 1199.53 493.728 1198.28 489.718 1198.28C485.709 1198.28 482.582 1199.53 480.337 1202.02C478.091 1204.51 476.969 1208.04 476.969 1212.62V1222.49C476.969 1227.07 478.091 1230.6 480.337 1233.09C482.582 1235.58 485.709 1236.82 489.718 1236.82Z" fill="#D0CFC0"/>
<path d="M545 1250.07C540.51 1250.07 537.262 1249.11 535.257 1247.18C533.333 1245.17 532.371 1242.8 532.371 1240.07V1235.86C532.371 1233.13 533.333 1230.8 535.257 1228.87C537.262 1226.87 540.51 1225.86 545 1225.86C549.49 1225.86 552.698 1226.87 554.622 1228.87C556.627 1230.8 557.629 1233.13 557.629 1235.86V1240.07C557.629 1242.8 556.627 1245.17 554.622 1247.18C552.698 1249.11 549.49 1250.07 545 1250.07Z" fill="#D0CFC0"/>
<path d="M600.282 1250.07C595.47 1250.07 591.14 1249.35 587.291 1247.9C583.442 1246.38 580.155 1244.21 577.428 1241.4C574.782 1238.59 572.738 1235.18 571.294 1231.16C569.851 1227.15 569.129 1222.61 569.129 1217.55C569.129 1212.5 569.851 1207.96 571.294 1203.95C572.738 1199.93 574.782 1196.52 577.428 1193.71C580.155 1190.9 583.442 1188.77 587.291 1187.33C591.14 1185.8 595.47 1185.04 600.282 1185.04C605.093 1185.04 609.423 1185.8 613.272 1187.33C617.121 1188.77 620.368 1190.9 623.014 1193.71C625.741 1196.52 627.826 1199.93 629.269 1203.95C630.712 1207.96 631.434 1212.5 631.434 1217.55C631.434 1222.61 630.712 1227.15 629.269 1231.16C627.826 1235.18 625.741 1238.59 623.014 1241.4C620.368 1244.21 617.121 1246.38 613.272 1247.9C609.423 1249.35 605.093 1250.07 600.282 1250.07ZM600.282 1236.82C604.291 1236.82 607.418 1235.58 609.663 1233.09C611.909 1230.6 613.031 1227.07 613.031 1222.49V1212.62C613.031 1208.04 611.909 1204.51 609.663 1202.02C607.418 1199.53 604.291 1198.28 600.282 1198.28C596.272 1198.28 593.145 1199.53 590.9 1202.02C588.655 1204.51 587.532 1208.04 587.532 1212.62V1222.49C587.532 1227.07 588.655 1230.6 590.9 1233.09C593.145 1235.58 596.272 1236.82 600.282 1236.82Z" fill="#D0CFC0"/>
<path d="M726 1211.17C726 1217.03 725.318 1222.69 723.955 1228.15C722.672 1233.53 720.868 1238.55 718.543 1243.21C716.297 1247.86 713.651 1252.08 710.604 1255.85C707.557 1259.62 704.35 1262.76 700.982 1265.25H683.18C686.869 1262.68 690.397 1259.67 693.765 1256.21C697.213 1252.84 700.18 1249.11 702.666 1245.01C705.232 1240.92 707.276 1236.54 708.8 1231.89C710.324 1227.23 711.085 1222.37 711.085 1217.31V1205.03C711.085 1199.97 710.324 1195.11 708.8 1190.46C707.276 1185.8 705.232 1181.42 702.666 1177.33C700.18 1173.24 697.213 1169.5 693.765 1166.13C690.397 1162.68 686.869 1159.67 683.18 1157.1H700.982C704.35 1159.67 707.557 1162.84 710.604 1166.61C713.651 1170.3 716.297 1174.48 718.543 1179.14C720.868 1183.79 722.672 1188.85 723.955 1194.31C725.318 1199.69 726 1205.31 726 1211.17Z" fill="#D0CFC0"/>
<path d="M394.143 1359.38L429.866 1340.47V1339.51L394.143 1320.6V1303.98L445.863 1331.68V1348.3L394.143 1376V1359.38Z" fill="#D0CFC0"/>
<path d="M563.764 1347.94L545.361 1309.04H543.918L525.515 1347.94L512.164 1341.44L535.618 1292.66H554.502L577.836 1341.44L563.764 1347.94Z" fill="#D0CFC0"/>
<path d="M644.137 1348.3V1331.68L695.857 1303.98V1320.6L660.134 1339.51V1340.47L695.857 1359.38V1376L644.137 1348.3Z" fill="#D0CFC0"/>
<path d="M138.987 2238V2170.8H167.883C172.363 2170.8 176.459 2171.82 180.171 2173.87C183.947 2175.92 186.955 2178.77 189.195 2182.42C191.435 2186 192.555 2190.16 192.555 2194.9C192.555 2199.63 191.435 2203.86 189.195 2207.57C186.955 2211.22 183.979 2214.06 180.267 2216.11C176.555 2218.16 172.427 2219.18 167.883 2219.18H155.115V2238H138.987ZM155.115 2205.65H166.059C167.979 2205.65 169.707 2205.23 171.243 2204.4C172.779 2203.57 174.027 2202.35 174.987 2200.75C175.947 2199.15 176.427 2197.23 176.427 2194.99C176.427 2192.75 175.947 2190.83 174.987 2189.23C174.027 2187.63 172.747 2186.42 171.147 2185.58C169.611 2184.69 167.915 2184.24 166.059 2184.24H155.115V2205.65ZM194.931 2238L216.723 2178.58C217.811 2175.63 219.603 2173.42 222.099 2171.95C224.595 2170.42 227.411 2169.65 230.547 2169.65C233.683 2169.65 236.499 2170.38 238.995 2171.86C241.491 2173.26 243.283 2175.47 244.371 2178.48L266.259 2238H248.883L244.659 2225.04H216.147L211.731 2238H194.931ZM220.275 2211.7H240.531L231.987 2184.91C231.859 2184.53 231.667 2184.27 231.411 2184.14C231.219 2183.95 230.963 2183.86 230.643 2183.86C230.323 2183.86 230.035 2183.95 229.779 2184.14C229.587 2184.34 229.459 2184.59 229.395 2184.91L220.275 2211.7ZM301.925 2239.15C296.613 2239.15 291.909 2238.1 287.813 2235.98C283.781 2233.81 280.613 2230.7 278.309 2226.67C276.005 2222.64 274.853 2217.87 274.853 2212.37V2170.8H290.693V2212.94C290.693 2215.25 291.141 2217.33 292.037 2219.18C292.933 2221.04 294.213 2222.51 295.877 2223.6C297.605 2224.69 299.621 2225.23 301.925 2225.23C304.229 2225.23 306.213 2224.69 307.877 2223.6C309.541 2222.51 310.821 2221.04 311.717 2219.18C312.677 2217.33 313.157 2215.25 313.157 2212.94V2170.8H328.997V2212.94C328.997 2215.25 329.445 2217.33 330.341 2219.18C331.237 2221.04 332.517 2222.51 334.181 2223.6C335.909 2224.69 337.925 2225.23 340.229 2225.23C342.533 2225.23 344.517 2224.69 346.181 2223.6C347.909 2222.51 349.221 2221.04 350.117 2219.18C351.013 2217.33 351.461 2215.25 351.461 2212.94V2170.8H367.301V2212.37C367.301 2217.87 366.149 2222.64 363.845 2226.67C361.541 2230.7 358.341 2233.81 354.245 2235.98C350.213 2238.1 345.541 2239.15 340.229 2239.15C337.605 2239.15 335.109 2238.83 332.741 2238.19C330.437 2237.62 328.293 2236.72 326.309 2235.5C324.389 2234.29 322.629 2232.82 321.029 2231.09C319.493 2232.82 317.733 2234.29 315.749 2235.5C313.765 2236.66 311.621 2237.55 309.317 2238.19C307.013 2238.83 304.549 2239.15 301.925 2239.15ZM446.015 2238C440.511 2238 435.551 2237.17 431.135 2235.5C426.719 2233.78 422.975 2231.38 419.903 2228.3C416.831 2225.23 414.463 2221.68 412.799 2217.65C411.135 2213.55 410.303 2209.14 410.303 2204.4C410.303 2199.66 411.135 2195.28 412.799 2191.25C414.463 2187.15 416.831 2183.57 419.903 2180.5C423.039 2177.42 426.783 2175.06 431.135 2173.39C435.551 2171.66 440.511 2170.8 446.015 2170.8H456.383V2184.24H446.399C443.391 2184.24 440.639 2184.75 438.143 2185.78C435.711 2186.8 433.599 2188.24 431.807 2190.1C430.079 2191.89 428.735 2194 427.775 2196.43C426.879 2198.86 426.431 2201.52 426.431 2204.4C426.431 2207.28 426.879 2209.94 427.775 2212.37C428.735 2214.8 430.079 2216.94 431.807 2218.8C433.599 2220.59 435.711 2222 438.143 2223.02C440.639 2224.05 443.391 2224.56 446.399 2224.56H456.383V2238H446.015ZM464.444 2238L486.236 2178.58C487.324 2175.63 489.116 2173.42 491.612 2171.95C494.108 2170.42 496.924 2169.65 500.06 2169.65C503.196 2169.65 506.012 2170.38 508.508 2171.86C511.004 2173.26 512.796 2175.47 513.884 2178.48L535.772 2238H518.396L514.172 2225.04H485.66L481.244 2238H464.444ZM489.788 2211.7H510.044L501.5 2184.91C501.372 2184.53 501.18 2184.27 500.924 2184.14C500.732 2183.95 500.476 2183.86 500.156 2183.86C499.836 2183.86 499.548 2183.95 499.292 2184.14C499.1 2184.34 498.972 2184.59 498.908 2184.91L489.788 2211.7ZM565.005 2238C560.845 2238 557.197 2237.07 554.061 2235.22C550.925 2233.36 548.493 2230.9 546.765 2227.82C545.037 2224.75 544.173 2221.36 544.173 2217.65V2170.8H560.301V2218.8C560.301 2220.34 560.845 2221.68 561.933 2222.83C563.021 2223.98 564.365 2224.56 565.965 2224.56H583.725V2238H565.005ZM614.196 2238C610.42 2238 606.996 2237.14 603.924 2235.41C600.852 2233.62 598.388 2231.25 596.532 2228.3C594.74 2225.3 593.844 2221.9 593.844 2218.13C593.844 2215.31 594.452 2212.69 595.668 2210.26C596.948 2207.76 598.644 2205.62 600.756 2203.82C598.708 2202.1 597.076 2200.05 595.86 2197.68C594.708 2195.31 594.132 2192.82 594.132 2190.19C594.132 2186.48 595.028 2183.18 596.82 2180.3C598.612 2177.36 601.012 2175.06 604.02 2173.39C607.028 2171.66 610.356 2170.8 614.004 2170.8H642.324V2184.24H616.5C615.284 2184.24 614.164 2184.53 613.14 2185.1C612.116 2185.68 611.284 2186.45 610.644 2187.41C610.068 2188.37 609.78 2189.49 609.78 2190.77C609.78 2191.98 610.068 2193.1 610.644 2194.13C611.284 2195.09 612.116 2195.86 613.14 2196.43C614.164 2196.94 615.284 2197.2 616.5 2197.2H639.06V2210.64H616.98C615.636 2210.64 614.42 2210.96 613.332 2211.6C612.244 2212.24 611.38 2213.07 610.74 2214.1C610.1 2215.12 609.78 2216.3 609.78 2217.65C609.78 2218.93 610.1 2220.11 610.74 2221.2C611.38 2222.22 612.244 2223.02 613.332 2223.6C614.42 2224.18 615.636 2224.46 616.98 2224.46H642.324V2238H614.196ZM704.059 2239.15C700.027 2239.15 696.411 2238.29 693.211 2236.56C690.011 2234.77 687.483 2232.3 685.627 2229.17C683.771 2226.03 682.843 2222.48 682.843 2218.51V2189.14C682.843 2188.11 682.587 2187.18 682.075 2186.35C681.563 2185.52 680.891 2184.85 680.059 2184.34C679.227 2183.82 678.299 2183.57 677.275 2183.57C676.251 2183.57 675.323 2183.82 674.491 2184.34C673.659 2184.85 672.987 2185.52 672.475 2186.35C672.027 2187.18 671.803 2188.11 671.803 2189.14V2238H656.059V2190.29C656.059 2186.26 656.955 2182.7 658.747 2179.63C660.603 2176.56 663.131 2174.13 666.331 2172.34C669.595 2170.54 673.243 2169.65 677.275 2169.65C681.371 2169.65 685.019 2170.54 688.219 2172.34C691.419 2174.13 693.947 2176.56 695.803 2179.63C697.659 2182.7 698.587 2186.26 698.587 2190.29V2219.66C698.587 2220.69 698.843 2221.65 699.355 2222.54C699.867 2223.38 700.507 2224.05 701.275 2224.56C702.107 2225.01 703.003 2225.23 703.963 2225.23C704.987 2225.23 705.915 2225.01 706.747 2224.56C707.643 2224.05 708.347 2223.38 708.859 2222.54C709.371 2221.65 709.627 2220.69 709.627 2219.66V2170.8H725.275V2218.51C725.275 2222.48 724.347 2226.03 722.491 2229.17C720.635 2232.3 718.107 2234.77 714.907 2236.56C711.707 2238.29 708.091 2239.15 704.059 2239.15ZM741.219 2238V2170.8H765.891C772.995 2170.8 779.139 2172.24 784.323 2175.12C789.571 2178 793.635 2181.97 796.515 2187.02C799.459 2192.08 800.931 2197.87 800.931 2204.4C800.931 2210.93 799.459 2216.72 796.515 2221.78C793.635 2226.83 789.571 2230.8 784.323 2233.68C779.139 2236.56 772.995 2238 765.891 2238H741.219ZM757.347 2224.56H765.507C769.219 2224.56 772.515 2223.76 775.395 2222.16C778.339 2220.5 780.643 2218.16 782.307 2215.15C783.971 2212.14 784.803 2208.56 784.803 2204.4C784.803 2200.24 783.971 2196.66 782.307 2193.65C780.643 2190.64 778.339 2188.34 775.395 2186.74C772.515 2185.07 769.219 2184.24 765.507 2184.24H757.347V2224.56ZM805.506 2238L827.298 2178.58C828.386 2175.63 830.178 2173.42 832.674 2171.95C835.17 2170.42 837.986 2169.65 841.122 2169.65C844.258 2169.65 847.074 2170.38 849.57 2171.86C852.066 2173.26 853.858 2175.47 854.946 2178.48L876.834 2238H859.458L855.234 2225.04H826.722L822.306 2238H805.506ZM830.85 2211.7H851.106L842.562 2184.91C842.434 2184.53 842.242 2184.27 841.986 2184.14C841.794 2183.95 841.538 2183.86 841.218 2183.86C840.898 2183.86 840.61 2183.95 840.354 2184.14C840.162 2184.34 840.034 2184.59 839.97 2184.91L830.85 2211.7ZM886.1 2238V2170.8H916.82C921.364 2170.8 925.492 2171.79 929.204 2173.78C932.98 2175.76 935.956 2178.51 938.132 2182.03C940.372 2185.55 941.492 2189.62 941.492 2194.22C941.492 2198.51 940.468 2202.38 938.42 2205.84C936.372 2209.23 933.684 2211.98 930.356 2214.1L935.732 2223.22C936.052 2223.66 936.404 2224.02 936.788 2224.27C937.236 2224.53 937.812 2224.66 938.516 2224.66H944.468V2238H935.06C932.18 2238 929.556 2237.33 927.188 2235.98C924.82 2234.58 922.964 2232.75 921.62 2230.51L914.42 2217.74C913.972 2217.74 913.492 2217.74 912.98 2217.74C912.532 2217.74 912.052 2217.74 911.54 2217.74H902.228V2238H886.1ZM902.228 2204.4H914.996C916.852 2204.4 918.58 2204.02 920.18 2203.25C921.78 2202.42 923.028 2201.26 923.924 2199.79C924.884 2198.26 925.364 2196.43 925.364 2194.32C925.364 2192.21 924.884 2190.42 923.924 2188.94C922.964 2187.41 921.684 2186.26 920.084 2185.49C918.548 2184.66 916.852 2184.24 914.996 2184.24H902.228V2204.4Z" fill="#D0CFC0"/>
</g>
<defs>
<clipPath id="clip0_2856_436">
<rect width="1080" height="2400" fill="white"/>
</clipPath>
</defs>
</svg>
