<svg width="192" height="192" viewBox="0 0 192 192" fill="none" xmlns="http://www.w3.org/2000/svg">
<rect width="192" height="192" fill="#141414"/>
<path d="M42.0786 72.9842L55.6374 35H61.2552L47.6964 72.9842H42.0786Z" fill="#DADADA"/>
<path d="M77.5852 72.9842L64.0264 35H69.6442L83.203 72.9842H77.5852Z" fill="#DADADA"/>
<path d="M85.4251 75.2683V70.1502H105.7V75.2683H85.4251Z" fill="#DADADA"/>
<path d="M107.922 72.9842L121.481 35H127.099L113.54 72.9842H107.922Z" fill="#DADADA"/>
<path d="M143.429 72.9842L129.87 35H135.488L149.046 72.9842H143.429Z" fill="#DADADA"/>
<path d="M32 98.983C32 96.9245 32.2253 94.9505 32.6758 93.0612C33.1545 91.1436 33.7881 89.3671 34.5766 87.7316C35.3932 86.096 36.3365 84.6297 37.4066 83.3325C38.4767 82.0071 39.603 80.8933 40.7857 79.9909H47.0371C45.7136 80.8933 44.4605 81.9507 43.2778 83.1633C42.0951 84.3477 41.0532 85.6589 40.1521 87.0971C39.2792 88.5352 38.5752 90.0721 38.0402 91.7076C37.5052 93.3432 37.2376 95.0492 37.2376 96.8258V101.14C37.2376 102.917 37.5052 104.623 38.0402 106.258C38.5752 107.894 39.2792 109.431 40.1521 110.869C41.0532 112.307 42.0951 113.618 43.2778 114.803C44.4605 116.015 45.7136 117.073 47.0371 117.975H40.7857C39.603 117.101 38.4767 116.001 37.4066 114.676C36.3365 113.35 35.3932 111.87 34.5766 110.234C33.7881 108.599 33.1545 106.836 32.6758 104.947C32.2253 103.03 32 101.042 32 98.983Z" fill="#DADADA"/>
<path d="M76.149 112.645C74.4595 112.645 72.9389 112.392 71.5872 111.884C70.2356 111.348 69.081 110.587 68.1236 109.6C67.1944 108.613 66.4763 107.415 65.9694 106.005C65.4626 104.595 65.2091 103.001 65.2091 101.225C65.2091 99.4483 65.4626 97.855 65.9694 96.4451C66.4763 95.0351 67.1944 93.8367 68.1236 92.8497C69.081 91.8627 70.2356 91.1154 71.5872 90.6079C72.9389 90.0721 74.4595 89.8042 76.149 89.8042C77.8386 89.8042 79.3592 90.0721 80.7109 90.6079C82.0625 91.1154 83.203 91.8627 84.1322 92.8497C85.0896 93.8367 85.8218 95.0351 86.3286 96.4451C86.8355 97.855 87.089 99.4483 87.089 101.225C87.089 103.001 86.8355 104.595 86.3286 106.005C85.8218 107.415 85.0896 108.613 84.1322 109.6C83.203 110.587 82.0625 111.348 80.7109 111.884C79.3592 112.392 77.8386 112.645 76.149 112.645ZM76.149 107.993C77.557 107.993 78.6552 107.556 79.4437 106.681C80.2321 105.807 80.6264 104.566 80.6264 102.959V99.4906C80.6264 97.8832 80.2321 96.6425 79.4437 95.7683C78.6552 94.8941 77.557 94.457 76.149 94.457C74.7411 94.457 73.6429 94.8941 72.8544 95.7683C72.0659 96.6425 71.6717 97.8832 71.6717 99.4906V102.959C71.6717 104.566 72.0659 105.807 72.8544 106.681C73.6429 107.556 74.7411 107.993 76.149 107.993Z" fill="#DADADA"/>
<path d="M95.5625 112.645C93.9856 112.645 92.8451 112.307 92.1411 111.63C91.4653 110.925 91.1274 110.093 91.1274 109.135V107.654C91.1274 106.695 91.4653 105.878 92.1411 105.201C92.8451 104.496 93.9856 104.143 95.5625 104.143C97.1394 104.143 98.2658 104.496 98.9416 105.201C99.6456 105.878 99.9976 106.695 99.9976 107.654V109.135C99.9976 110.093 99.6456 110.925 98.9416 111.63C98.2658 112.307 97.1394 112.645 95.5625 112.645Z" fill="#DADADA"/>
<path d="M114.976 112.645C113.286 112.645 111.766 112.392 110.414 111.884C109.062 111.348 107.908 110.587 106.951 109.6C106.021 108.613 105.303 107.415 104.796 106.005C104.289 104.595 104.036 103.001 104.036 101.225C104.036 99.4483 104.289 97.855 104.796 96.4451C105.303 95.0351 106.021 93.8367 106.951 92.8497C107.908 91.8627 109.062 91.1154 110.414 90.6079C111.766 90.0721 113.286 89.8042 114.976 89.8042C116.666 89.8042 118.186 90.0721 119.538 90.6079C120.889 91.1154 122.03 91.8627 122.959 92.8497C123.917 93.8367 124.649 95.0351 125.156 96.4451C125.662 97.855 125.916 99.4483 125.916 101.225C125.916 103.001 125.662 104.595 125.156 106.005C124.649 107.415 123.917 108.613 122.959 109.6C122.03 110.587 120.889 111.348 119.538 111.884C118.186 112.392 116.666 112.645 114.976 112.645ZM114.976 107.993C116.384 107.993 117.482 107.556 118.271 106.681C119.059 105.807 119.453 104.566 119.453 102.959V99.4906C119.453 97.8832 119.059 96.6425 118.271 95.7683C117.482 94.8941 116.384 94.457 114.976 94.457C113.568 94.457 112.47 94.8941 111.681 95.7683C110.893 96.6425 110.499 97.8832 110.499 99.4906V102.959C110.499 104.566 110.893 105.807 111.681 106.681C112.47 107.556 113.568 107.993 114.976 107.993Z" fill="#DADADA"/>
<path d="M159.125 98.983C159.125 101.042 158.886 103.03 158.407 104.947C157.956 106.836 157.323 108.599 156.506 110.234C155.718 111.87 154.788 113.35 153.718 114.676C152.648 116.001 151.522 117.101 150.339 117.975H144.088C145.383 117.073 146.622 116.015 147.805 114.803C149.016 113.618 150.058 112.307 150.931 110.869C151.832 109.431 152.55 107.894 153.085 106.258C153.62 104.623 153.887 102.917 153.887 101.14V96.8258C153.887 95.0492 153.62 93.3432 153.085 91.7076C152.55 90.0721 151.832 88.5352 150.931 87.0971C150.058 85.6589 149.016 84.3477 147.805 83.1633C146.622 81.9507 145.383 80.8933 144.088 79.9909H150.339C151.522 80.8933 152.648 82.0071 153.718 83.3325C154.788 84.6297 155.718 86.096 156.506 87.7316C157.323 89.3671 157.956 91.1436 158.407 93.0612C158.886 94.9505 159.125 96.9245 159.125 98.983Z" fill="#DADADA"/>
<path d="M42.5855 151.038L55.1305 144.397V144.058L42.5855 137.418V131.58L60.7483 141.309V147.146L42.5855 156.875V151.038Z" fill="#DADADA"/>
<path d="M102.152 147.019L95.6892 133.357H95.1824L88.7198 147.019L84.0312 144.735L92.2679 127.604H98.8994L107.094 144.735L102.152 147.019Z" fill="#DADADA"/>
<path d="M130.377 147.146V141.309L148.54 131.58V137.418L135.995 144.058V144.397L148.54 151.038V156.875L130.377 147.146Z" fill="#DADADA"/>
</svg>
