<svg width="180" height="180" viewBox="0 0 180 180" fill="none" xmlns="http://www.w3.org/2000/svg">
<rect width="180" height="180" fill="#141414"/>
<path d="M42.9657 69.932L54.7854 36.8196H59.6827L47.8629 69.932H42.9657Z" fill="#DADADA"/>
<path d="M73.9182 69.932L62.0985 36.8196H66.9958L78.8155 69.932H73.9182Z" fill="#DADADA"/>
<path d="M80.7527 71.9232V67.4615H98.427V71.9232H80.7527Z" fill="#DADADA"/>
<path d="M100.364 69.932L112.184 36.8196H117.081L105.261 69.932H100.364Z" fill="#DADADA"/>
<path d="M131.317 69.932L119.497 36.8196H124.394L136.214 69.932H131.317Z" fill="#DADADA"/>
<path d="M34.1797 92.5963C34.1797 90.8018 34.3761 89.081 34.7688 87.434C35.1861 85.7624 35.7385 84.2137 36.4258 82.7879C37.1377 81.3622 37.96 80.0839 38.8929 78.9531C39.8257 77.7977 40.8076 76.8267 41.8386 76.0401H47.2882C46.1344 76.8267 45.0421 77.7486 44.0111 78.8056C42.98 79.8381 42.0718 80.9811 41.2863 82.2348C40.5253 83.4885 39.9116 84.8283 39.4452 86.2541C38.9788 87.6798 38.7456 89.1671 38.7456 90.7158V94.4769C38.7456 96.0256 38.9788 97.5128 39.4452 98.9386C39.9116 100.364 40.5253 101.704 41.2863 102.958C42.0718 104.211 42.98 105.355 44.0111 106.387C45.0421 107.444 46.1344 108.366 47.2882 109.153H41.8386C40.8076 108.39 39.8257 107.432 38.8929 106.276C37.96 105.121 37.1377 103.83 36.4258 102.405C35.7385 100.979 35.1861 99.4425 34.7688 97.7955C34.3761 96.1239 34.1797 94.3908 34.1797 92.5963Z" fill="#DADADA"/>
<path d="M72.6663 104.506C71.1934 104.506 69.8679 104.285 68.6896 103.843C67.5113 103.376 66.5048 102.712 65.6702 101.852C64.8601 100.991 64.2342 99.9464 63.7923 98.7173C63.3504 97.4882 63.1295 96.0993 63.1295 94.5506C63.1295 93.0019 63.3504 91.613 63.7923 90.3839C64.2342 89.1548 64.8601 88.11 65.6702 87.2496C66.5048 86.3893 67.5113 85.7378 68.6896 85.2953C69.8679 84.8283 71.1934 84.5947 72.6663 84.5947C74.1392 84.5947 75.4647 84.8283 76.643 85.2953C77.8213 85.7378 78.8155 86.3893 79.6256 87.2496C80.4602 88.11 81.0984 89.1548 81.5403 90.3839C81.9822 91.613 82.2031 93.0019 82.2031 94.5506C82.2031 96.0993 81.9822 97.4882 81.5403 98.7173C81.0984 99.9464 80.4602 100.991 79.6256 101.852C78.8155 102.712 77.8213 103.376 76.643 103.843C75.4647 104.285 74.1392 104.506 72.6663 104.506ZM72.6663 100.45C73.8937 100.45 74.851 100.069 75.5384 99.3073C76.2257 98.5452 76.5694 97.4636 76.5694 96.0624V93.0388C76.5694 91.6376 76.2257 90.556 75.5384 89.7939C74.851 89.0319 73.8937 88.6508 72.6663 88.6508C71.4389 88.6508 70.4816 89.0319 69.7942 89.7939C69.1069 90.556 68.7632 91.6376 68.7632 93.0388V96.0624C68.7632 97.4636 69.1069 98.5452 69.7942 99.3073C70.4816 100.069 71.4389 100.45 72.6663 100.45Z" fill="#DADADA"/>
<path d="M89.5898 104.506C88.2152 104.506 87.221 104.211 86.6073 103.622C86.0182 103.007 85.7236 102.282 85.7236 101.446V100.155C85.7236 99.3196 86.0182 98.6067 86.6073 98.0167C87.221 97.4022 88.2152 97.0949 89.5898 97.0949C90.9645 97.0949 91.9464 97.4022 92.5356 98.0167C93.1493 98.6067 93.4561 99.3196 93.4561 100.155V101.446C93.4561 102.282 93.1493 103.007 92.5356 103.622C91.9464 104.211 90.9645 104.506 89.5898 104.506Z" fill="#DADADA"/>
<path d="M106.513 104.506C105.041 104.506 103.715 104.285 102.537 103.843C101.358 103.376 100.352 102.712 99.5173 101.852C98.7072 100.991 98.0812 99.9464 97.6394 98.7173C97.1975 97.4882 96.9766 96.0993 96.9766 94.5506C96.9766 93.0019 97.1975 91.613 97.6394 90.3839C98.0812 89.1548 98.7072 88.11 99.5173 87.2496C100.352 86.3893 101.358 85.7378 102.537 85.2953C103.715 84.8283 105.041 84.5947 106.513 84.5947C107.986 84.5947 109.312 84.8283 110.49 85.2953C111.668 85.7378 112.663 86.3893 113.473 87.2496C114.307 88.11 114.946 89.1548 115.387 90.3839C115.829 91.613 116.05 93.0019 116.05 94.5506C116.05 96.0993 115.829 97.4882 115.387 98.7173C114.946 99.9464 114.307 100.991 113.473 101.852C112.663 102.712 111.668 103.376 110.49 103.843C109.312 104.285 107.986 104.506 106.513 104.506ZM106.513 100.45C107.741 100.45 108.698 100.069 109.385 99.3073C110.073 98.5452 110.416 97.4636 110.416 96.0624V93.0388C110.416 91.6376 110.073 90.556 109.385 89.7939C108.698 89.0319 107.741 88.6508 106.513 88.6508C105.286 88.6508 104.329 89.0319 103.641 89.7939C102.954 90.556 102.61 91.6376 102.61 93.0388V96.0624C102.61 97.4636 102.954 98.5452 103.641 99.3073C104.329 100.069 105.286 100.45 106.513 100.45Z" fill="#DADADA"/>
<path d="M145 92.5963C145 94.3908 144.791 96.1239 144.374 97.7955C143.981 99.4425 143.429 100.979 142.717 102.405C142.03 103.83 141.22 105.121 140.287 106.276C139.354 107.432 138.372 108.39 137.341 109.153H131.892C133.021 108.366 134.101 107.444 135.132 106.387C136.187 105.355 137.096 104.211 137.857 102.958C138.642 101.704 139.268 100.364 139.735 98.9386C140.201 97.5128 140.434 96.0256 140.434 94.4769V90.7158C140.434 89.1671 140.201 87.6798 139.735 86.2541C139.268 84.8283 138.642 83.4885 137.857 82.2348C137.096 80.9811 136.187 79.8381 135.132 78.8056C134.101 77.7486 133.021 76.8267 131.892 76.0401H137.341C138.372 76.8267 139.354 77.7977 140.287 78.9531C141.22 80.0839 142.03 81.3622 142.717 82.7879C143.429 84.2137 143.981 85.7624 144.374 87.434C144.791 89.081 145 90.8018 145 92.5963Z" fill="#DADADA"/>
<path d="M43.4075 137.975L54.3435 132.186V131.891L43.4075 126.101V121.013L59.2408 129.494V134.582L43.4075 143.063V137.975Z" fill="#DADADA"/>
<path d="M95.334 134.472L89.7003 122.562H89.2585L83.6248 134.472L79.5376 132.481L86.7178 117.547H92.4988L99.6421 132.481L95.334 134.472Z" fill="#DADADA"/>
<path d="M119.939 134.582V129.494L135.772 121.013V126.101L124.836 131.891V132.186L135.772 137.975V143.063L119.939 134.582Z" fill="#DADADA"/>
</svg>
