<svg width="32" height="32" viewBox="0 0 32 32" fill="none" xmlns="http://www.w3.org/2000/svg">
<rect width="32" height="32" rx="2.66667" fill="black"/>
<path d="M2.67251 10.3081L6.02865 0.888916H7.41919L4.06306 10.3081H2.67251Z" fill="#DADADA"/>
<path d="M11.4613 10.3081L8.10515 0.888916H9.4957L12.8518 10.3081H11.4613Z" fill="#DADADA"/>
<path d="M13.4019 10.8745V9.60537H18.4204V10.8745H13.4019Z" fill="#DADADA"/>
<path d="M18.9704 10.3081L22.3266 0.888916H23.7171L20.361 10.3081H18.9704Z" fill="#DADADA"/>
<path d="M27.7592 10.3081L24.4031 0.888916H25.7936L29.1497 10.3081H27.7592Z" fill="#DADADA"/>
<path d="M0.177795 16.7552C0.177795 16.2448 0.233557 15.7553 0.345079 15.2868C0.463572 14.8113 0.620401 14.3707 0.815565 13.9651C1.0177 13.5596 1.2512 13.1959 1.51607 12.8743C1.78093 12.5456 2.05974 12.2694 2.35248 12.0456H3.89986C3.57226 12.2694 3.26209 12.5316 2.96934 12.8323C2.6766 13.126 2.4187 13.4512 2.19566 13.8078C1.97958 14.1644 1.80533 14.5455 1.67289 14.9511C1.54046 15.3567 1.47424 15.7798 1.47424 16.2203V17.2902C1.47424 17.7307 1.54046 18.1538 1.67289 18.5594C1.80533 18.9649 1.97958 19.3461 2.19566 19.7027C2.4187 20.0593 2.6766 20.3845 2.96934 20.6782C3.26209 20.9789 3.57226 21.2411 3.89986 21.4649H2.35248C2.05974 21.2481 1.78093 20.9754 1.51607 20.6467C1.2512 20.318 1.0177 19.9509 0.815565 19.5453C0.620401 19.1398 0.463572 18.7027 0.345079 18.2342C0.233557 17.7587 0.177795 17.2657 0.177795 16.7552Z" fill="#DADADA"/>
<path d="M11.1058 20.1432C10.6876 20.1432 10.3112 20.0803 9.97664 19.9544C9.64207 19.8216 9.35629 19.6328 9.11931 19.388C8.88929 19.1433 8.71156 18.8461 8.58609 18.4964C8.46063 18.1468 8.3979 17.7517 8.3979 17.3112C8.3979 16.8706 8.46063 16.4755 8.58609 16.1259C8.71156 15.7763 8.88929 15.4791 9.11931 15.2343C9.35629 14.9896 9.64207 14.8043 9.97664 14.6784C10.3112 14.5455 10.6876 14.4791 11.1058 14.4791C11.524 14.4791 11.9004 14.5455 12.235 14.6784C12.5695 14.8043 12.8518 14.9896 13.0818 15.2343C13.3188 15.4791 13.5001 15.7763 13.6255 16.1259C13.751 16.4755 13.8137 16.8706 13.8137 17.3112C13.8137 17.7517 13.751 18.1468 13.6255 18.4964C13.5001 18.8461 13.3188 19.1433 13.0818 19.388C12.8518 19.6328 12.5695 19.8216 12.235 19.9544C11.9004 20.0803 11.524 20.1432 11.1058 20.1432ZM11.1058 18.9894C11.4543 18.9894 11.7261 18.881 11.9213 18.6643C12.1165 18.4475 12.2141 18.1398 12.2141 17.7412V16.8811C12.2141 16.4825 12.1165 16.1748 11.9213 15.9581C11.7261 15.7413 11.4543 15.6329 11.1058 15.6329C10.7573 15.6329 10.4855 15.7413 10.2903 15.9581C10.0951 16.1748 9.99755 16.4825 9.99755 16.8811V17.7412C9.99755 18.1398 10.0951 18.4475 10.2903 18.6643C10.4855 18.881 10.7573 18.9894 11.1058 18.9894Z" fill="#DADADA"/>
<path d="M15.9111 20.1432C15.5208 20.1432 15.2385 20.0593 15.0643 19.8915C14.897 19.7167 14.8133 19.5104 14.8133 19.2726V18.9055C14.8133 18.6678 14.897 18.465 15.0643 18.2971C15.2385 18.1223 15.5208 18.0349 15.9111 18.0349C16.3015 18.0349 16.5803 18.1223 16.7475 18.2971C16.9218 18.465 17.0089 18.6678 17.0089 18.9055V19.2726C17.0089 19.5104 16.9218 19.7167 16.7475 19.8915C16.5803 20.0593 16.3015 20.1432 15.9111 20.1432Z" fill="#DADADA"/>
<path d="M20.7165 20.1432C20.2982 20.1432 19.9219 20.0803 19.5873 19.9544C19.2527 19.8216 18.9669 19.6328 18.73 19.388C18.4999 19.1433 18.3222 18.8461 18.1967 18.4964C18.0713 18.1468 18.0085 17.7517 18.0085 17.3112C18.0085 16.8706 18.0713 16.4755 18.1967 16.1259C18.3222 15.7763 18.4999 15.4791 18.73 15.2343C18.9669 14.9896 19.2527 14.8043 19.5873 14.6784C19.9219 14.5455 20.2982 14.4791 20.7165 14.4791C21.1347 14.4791 21.5111 14.5455 21.8456 14.6784C22.1802 14.8043 22.4625 14.9896 22.6925 15.2343C22.9295 15.4791 23.1107 15.7763 23.2362 16.1259C23.3616 16.4755 23.4244 16.8706 23.4244 17.3112C23.4244 17.7517 23.3616 18.1468 23.2362 18.4964C23.1107 18.8461 22.9295 19.1433 22.6925 19.388C22.4625 19.6328 22.1802 19.8216 21.8456 19.9544C21.5111 20.0803 21.1347 20.1432 20.7165 20.1432ZM20.7165 18.9894C21.065 18.9894 21.3368 18.881 21.532 18.6643C21.7271 18.4475 21.8247 18.1398 21.8247 17.7412V16.8811C21.8247 16.4825 21.7271 16.1748 21.532 15.9581C21.3368 15.7413 21.065 15.6329 20.7165 15.6329C20.3679 15.6329 20.0961 15.7413 19.9009 15.9581C19.7058 16.1748 19.6082 16.4825 19.6082 16.8811V17.7412C19.6082 18.1398 19.7058 18.4475 19.9009 18.6643C20.0961 18.881 20.3679 18.9894 20.7165 18.9894Z" fill="#DADADA"/>
<path d="M31.6445 16.7552C31.6445 17.2657 31.5852 17.7587 31.4667 18.2342C31.3552 18.7027 31.1984 19.1398 30.9962 19.5453C30.8011 19.9509 30.5711 20.318 30.3062 20.6467C30.0413 20.9754 29.7625 21.2481 29.4698 21.4649H27.9224C28.243 21.2411 28.5497 20.9789 28.8425 20.6782C29.1422 20.3845 29.4001 20.0593 29.6161 19.7027C29.8392 19.3461 30.0169 18.9649 30.1494 18.5594C30.2818 18.1538 30.348 17.7307 30.348 17.2902V16.2203C30.348 15.7798 30.2818 15.3567 30.1494 14.9511C30.0169 14.5455 29.8392 14.1644 29.6161 13.8078C29.4001 13.4512 29.1422 13.126 28.8425 12.8323C28.5497 12.5316 28.243 12.2694 27.9224 12.0456H29.4698C29.7625 12.2694 30.0413 12.5456 30.3062 12.8743C30.5711 13.1959 30.8011 13.5596 30.9962 13.9651C31.1984 14.3707 31.3552 14.8113 31.4667 15.2868C31.5852 15.7553 31.6445 16.2448 31.6445 16.7552Z" fill="#DADADA"/>
<path d="M2.79798 29.6636L5.90318 28.0169V27.9329L2.79798 26.2861V24.8387L7.29373 27.2511V28.6986L2.79798 31.1111V29.6636Z" fill="#DADADA"/>
<path d="M17.5421 28.6672L15.9425 25.2792H15.817L14.2174 28.6672L13.0569 28.1008L15.0956 23.8527H16.7371L18.7654 28.1008L17.5421 28.6672Z" fill="#DADADA"/>
<path d="M24.5285 28.6986V27.2511L29.0243 24.8387V26.2861L25.9191 27.9329V28.0169L29.0243 29.6636V31.1111L24.5285 28.6986Z" fill="#DADADA"/>
</svg>
