<svg width="16" height="16" viewBox="0 0 16 16" fill="none" xmlns="http://www.w3.org/2000/svg">
<rect width="16" height="16" rx="1.33333" fill="black"/>
<path d="M1.33623 5.15395L3.01429 0.444336H3.70957L2.0315 5.15395H1.33623Z" fill="#DADADA"/>
<path d="M5.73061 5.15395L4.05255 0.444336H4.74782L6.42588 5.15395H5.73061Z" fill="#DADADA"/>
<path d="M6.70091 5.43715V4.80256H9.21016V5.43715H6.70091Z" fill="#DADADA"/>
<path d="M9.48518 5.15395L11.1633 0.444336H11.8585L10.1805 5.15395H9.48518Z" fill="#DADADA"/>
<path d="M13.8796 5.15395L12.2015 0.444336H12.8968L14.5748 5.15395H13.8796Z" fill="#DADADA"/>
<path d="M0.0888672 8.3775C0.0888672 8.12226 0.116748 7.87752 0.172509 7.64326C0.231755 7.40551 0.31017 7.18524 0.407752 6.98245C0.508819 6.77966 0.625569 6.59785 0.758002 6.43701C0.890435 6.27268 1.02984 6.13458 1.17621 6.02269H1.9499C1.7861 6.13458 1.63101 6.26569 1.48464 6.41604C1.33827 6.56288 1.20932 6.72547 1.0978 6.90378C0.98976 7.08209 0.902633 7.27265 0.836417 7.47544C0.7702 7.67823 0.737092 7.88976 0.737092 8.11003V8.64497C0.737092 8.86524 0.7702 9.07677 0.836417 9.27956C0.902633 9.48235 0.98976 9.6729 1.0978 9.85122C1.20932 10.0295 1.33827 10.1921 1.48464 10.339C1.63101 10.4893 1.7861 10.6204 1.9499 10.7323H1.17621C1.02984 10.6239 0.890435 10.4876 0.758002 10.3232C0.625569 10.1589 0.508819 9.97534 0.407752 9.77255C0.31017 9.56976 0.231755 9.35124 0.172509 9.11698C0.116748 8.87923 0.0888672 8.63273 0.0888672 8.3775Z" fill="#DADADA"/>
<path d="M5.55287 10.0715C5.34377 10.0715 5.15557 10.04 4.98829 9.97709C4.82101 9.91066 4.67812 9.81626 4.55962 9.69388C4.44462 9.57151 4.35575 9.42291 4.29302 9.2481C4.23028 9.07328 4.19892 8.87573 4.19892 8.65546C4.19892 8.43519 4.23028 8.23764 4.29302 8.06283C4.35575 7.88801 4.44462 7.73941 4.55962 7.61704C4.67812 7.49467 4.82101 7.40201 4.98829 7.33908C5.15557 7.27265 5.34377 7.23943 5.55287 7.23943C5.76198 7.23943 5.95017 7.27265 6.11745 7.33908C6.28474 7.40201 6.42588 7.49467 6.54089 7.61704C6.65938 7.73941 6.75 7.88801 6.81273 8.06283C6.87546 8.23764 6.90682 8.43519 6.90682 8.65546C6.90682 8.87573 6.87546 9.07328 6.81273 9.2481C6.75 9.42291 6.65938 9.57151 6.54089 9.69388C6.42588 9.81626 6.28474 9.91066 6.11745 9.97709C5.95017 10.04 5.76198 10.0715 5.55287 10.0715ZM5.55287 9.49459C5.72713 9.49459 5.86304 9.4404 5.96063 9.33201C6.05821 9.22362 6.107 9.06978 6.107 8.87049V8.44043C6.107 8.24114 6.05821 8.0873 5.96063 7.97891C5.86304 7.87053 5.72713 7.81633 5.55287 7.81633C5.37862 7.81633 5.2427 7.87053 5.14512 7.97891C5.04754 8.0873 4.99874 8.24114 4.99874 8.44043V8.87049C4.99874 9.06978 5.04754 9.22362 5.14512 9.33201C5.2427 9.4404 5.37862 9.49459 5.55287 9.49459Z" fill="#DADADA"/>
<path d="M7.95553 10.0715C7.76037 10.0715 7.61922 10.0295 7.5321 9.94562C7.44846 9.85821 7.40663 9.75507 7.40663 9.63619V9.45263C7.40663 9.33376 7.44846 9.23236 7.5321 9.14845C7.61922 9.06104 7.76037 9.01734 7.95553 9.01734C8.1507 9.01734 8.2901 9.06104 8.37374 9.14845C8.46087 9.23236 8.50443 9.33376 8.50443 9.45263V9.63619C8.50443 9.75507 8.46087 9.85821 8.37374 9.94562C8.2901 10.0295 8.1507 10.0715 7.95553 10.0715Z" fill="#DADADA"/>
<path d="M10.3582 10.0715C10.1491 10.0715 9.9609 10.04 9.79361 9.97709C9.62633 9.91066 9.48344 9.81626 9.36495 9.69388C9.24994 9.57151 9.16107 9.42291 9.09834 9.2481C9.03561 9.07328 9.00424 8.87573 9.00424 8.65546C9.00424 8.43519 9.03561 8.23764 9.09834 8.06283C9.16107 7.88801 9.24994 7.73941 9.36495 7.61704C9.48344 7.49467 9.62633 7.40201 9.79361 7.33908C9.9609 7.27265 10.1491 7.23943 10.3582 7.23943C10.5673 7.23943 10.7555 7.27265 10.9228 7.33908C11.0901 7.40201 11.2312 7.49467 11.3462 7.61704C11.4647 7.73941 11.5553 7.88801 11.6181 8.06283C11.6808 8.23764 11.7121 8.43519 11.7121 8.65546C11.7121 8.87573 11.6808 9.07328 11.6181 9.2481C11.5553 9.42291 11.4647 9.57151 11.3462 9.69388C11.2312 9.81626 11.0901 9.91066 10.9228 9.97709C10.7555 10.04 10.5673 10.0715 10.3582 10.0715ZM10.3582 9.49459C10.5325 9.49459 10.6684 9.4404 10.766 9.33201C10.8635 9.22362 10.9123 9.06978 10.9123 8.87049V8.44043C10.9123 8.24114 10.8635 8.0873 10.766 7.97891C10.6684 7.87053 10.5325 7.81633 10.3582 7.81633C10.1839 7.81633 10.048 7.87053 9.95044 7.97891C9.85286 8.0873 9.80407 8.24114 9.80407 8.44043V8.87049C9.80407 9.06978 9.85286 9.22362 9.95044 9.33201C10.048 9.4404 10.1839 9.49459 10.3582 9.49459Z" fill="#DADADA"/>
<path d="M15.8222 8.3775C15.8222 8.63273 15.7926 8.87923 15.7333 9.11698C15.6776 9.35124 15.5992 9.56976 15.4981 9.77255C15.4005 9.97534 15.2855 10.1589 15.1531 10.3232C15.0206 10.4876 14.8812 10.6239 14.7349 10.7323H13.9612C14.1215 10.6204 14.2748 10.4893 14.4212 10.339C14.5711 10.1921 14.7 10.0295 14.808 9.85122C14.9196 9.6729 15.0084 9.48235 15.0747 9.27956C15.1409 9.07677 15.174 8.86524 15.174 8.64497V8.11003C15.174 7.88976 15.1409 7.67823 15.0747 7.47544C15.0084 7.27265 14.9196 7.08209 14.808 6.90378C14.7 6.72547 14.5711 6.56288 14.4212 6.41604C14.2748 6.26569 14.1215 6.13458 13.9612 6.02269H14.7349C14.8812 6.13458 15.0206 6.27268 15.1531 6.43701C15.2855 6.59785 15.4005 6.77966 15.4981 6.98245C15.5992 7.18524 15.6776 7.40551 15.7333 7.64326C15.7926 7.87752 15.8222 8.12226 15.8222 8.3775Z" fill="#DADADA"/>
<path d="M1.39896 14.8317L2.95156 14.0083V13.9663L1.39896 13.143V12.4192L3.64683 13.6255V14.3492L1.39896 15.5554V14.8317Z" fill="#DADADA"/>
<path d="M8.77104 14.3335L7.97122 12.6395H7.90849L7.10866 14.3335L6.52839 14.0503L7.54778 11.9262H8.36852L9.38268 14.0503L8.77104 14.3335Z" fill="#DADADA"/>
<path d="M12.2642 14.3492V13.6255L14.5121 12.4192V13.143L12.9595 13.9663V14.0083L14.5121 14.8317V15.5554L12.2642 14.3492Z" fill="#DADADA"/>
</svg>
