<svg width="348" height="321" viewBox="0 0 348 321" fill="none" xmlns="http://www.w3.org/2000/svg">
<path d="M89.0205 272.969V290.565L34.9336 320.25V298.033L64.9775 281.767L34.9336 265.501V243.284L89.0205 272.969Z" fill="#DADADA"/>
<path d="M311.784 265.501L281.739 281.767L311.784 298.033V320.25L257.697 290.565V272.969L311.784 243.284V265.501Z" fill="#DADADA"/>
<path d="M207.515 284.204L189.301 292.597L173.091 260.077L156.847 292.665L139.238 284.133L163.604 235.646H183.113L207.515 284.204Z" fill="#DADADA"/>
<path d="M225.01 139.866C233.421 139.866 241.904 142.671 247.683 148.991C250.434 151.923 252.479 155.432 253.853 159.445C259.595 175.397 254.545 196.63 237.763 203.415C229.825 206.624 220.087 206.624 212.149 203.415C208.411 201.868 204.997 199.578 202.229 196.618C196.264 190.093 194 181.475 194 172.805C194 168.294 194.572 163.72 196.059 159.445C197.439 155.611 199.477 151.935 202.271 148.946C208.235 142.621 216.446 139.866 225.01 139.866ZM225.45 159C222.277 159 220.368 159.811 219.075 161.05C214.907 165.043 214.907 179.86 219.075 183.854C222.063 186.715 228.837 186.715 231.824 183.854C235.991 179.861 235.991 165.042 231.824 161.05C230.531 159.811 228.623 159 225.45 159Z" fill="#DADADA"/>
<path d="M196.512 107H145.487V91.5781H196.512V107Z" fill="#DADADA"/>
<path d="M45.9357 104.973H26L61.5252 1H81.4609L45.9357 104.973Z" fill="#DADADA"/>
<path d="M140.846 104.973H120.91L85.3848 1H105.32L140.846 104.973Z" fill="#DADADA"/>
<path d="M221.09 104.973H201.154L236.679 1H256.615L221.09 104.973Z" fill="#DADADA"/>
<path d="M316 104.973H296.064L260.539 1H280.475L316 104.973Z" fill="#DADADA"/>
<path d="M39 129.999C33.5 134.999 25.1659 145.935 21.5264 157.236C17.1678 171.337 18.9905 189.455 26.5039 202.068C30.5361 208.698 35.1602 213.974 40.3301 218.986C45.5 223.999 48.5391 226.246 48.5391 226.246H26.9766C23.106 223.39 19.6389 220.15 16.6084 216.401C6.99488 204.511 2.0001 189.358 2 174.123C2 168.748 2.5886 163.379 3.83398 158.148C5.06365 153.23 6.72608 148.382 8.95996 143.825C13.2462 135.253 19.323 127.805 26.9434 122H48.5391C48.5391 122 44.5 124.999 39 129.999Z" fill="#DADADA"/>
<path d="M308.539 129.999C314.039 134.999 322.373 145.935 326.013 157.236C330.371 171.337 328.549 189.455 321.035 202.068C317.003 208.698 312.379 213.974 307.209 218.986C302.039 223.999 299 226.246 299 226.246H320.562C324.433 223.39 327.9 220.15 330.931 216.401C340.544 204.511 345.539 189.358 345.539 174.123C345.539 168.748 344.95 163.379 343.705 158.148C342.475 153.23 340.813 148.382 338.579 143.825C334.293 135.253 328.216 127.805 320.596 122H299C299 122 303.039 124.999 308.539 129.999Z" fill="#DADADA"/>
<path d="M170.5 180C174.046 180 177.471 180.725 179.797 183.055C184.068 187.333 184.068 196.476 179.797 200.754C175.475 205.082 165.524 205.082 161.202 200.754C156.932 196.477 156.933 187.332 161.202 183.055C163.528 180.725 166.954 180 170.5 180Z" fill="#DADADA"/>
<path d="M116.061 139.866C124.471 139.866 132.955 142.671 138.733 148.991C141.485 151.923 143.529 155.432 144.903 159.445C150.646 175.397 145.596 196.63 128.813 203.415C120.876 206.624 111.138 206.624 103.2 203.415C99.4617 201.868 96.0475 199.578 93.2803 196.618C87.3147 190.093 85.0509 181.475 85.0508 172.805C85.0508 168.294 85.6225 163.72 87.1094 159.445C88.4897 155.611 90.528 151.935 93.3223 148.946C99.2861 142.621 107.497 139.866 116.061 139.866ZM116.501 159C113.328 159 111.419 159.811 110.126 161.05C105.958 165.043 105.958 179.86 110.126 183.854C113.113 186.715 119.888 186.715 122.875 183.854C127.042 179.861 127.042 165.042 122.875 161.05C121.582 159.811 119.673 159 116.501 159Z" fill="#DADADA"/>
</svg>
